OpenSim_Sub01_CSBaseline_GRF.mot
version=1
nRows=28
nColumns=19
inDegrees=no
endheader
time	lFx	lFy	lFz	lCOPx	lCOPy	lCOPz	rFx	rFy	rFz	rCOPx	rCOPy	rCOPz	lMx	lMy	lMz	rMx	rMy	rMz
0	-3.46952402	335.63460040	20.14566985	0.65908595	0	-0.66840004	-4.10066905	313.81511663	-25.23634430	0.71279740	0	-0.34768213	0	-0.74793465	0	0	1.01475691	0
0.01000000	-3.14433550	335.54787685	19.93990688	0.65978280	0	-0.66846168	-2.60935345	314.15279139	-24.37742281	0.71392256	0	-0.34738162	0	-0.64516277	0	0	1.30783254	0.00000000
0.02000000	-2.91519918	335.45764608	19.79137433	0.66010581	0	-0.66847599	-1.73747205	314.38854583	-23.94282774	0.71437303	0	-0.34719901	0	-0.57849033	0	0	1.46598823	0.00000000
0.03000000	-2.76565243	335.42678182	19.68425934	0.66005739	0	-0.66846954	-1.36157620	314.56858744	-23.82245940	0.71433787	0	-0.34710880	0	-0.54645544	0	0	1.51115136	0.00000000
0.04000000	-2.67888045	335.57885288	19.62155920	0.65983909	0	-0.66843578	-1.25362003	314.79884506	-23.82547570	0.71415364	0	-0.34708543	0	-0.52429612	0	0	1.50405720	-0.00000000
0.05000000	-2.65764952	336.01387239	19.60956205	0.65957686	0	-0.66839136	-1.28269606	315.12416309	-23.83255193	0.71394121	0	-0.34707898	0	-0.50000006	0	0	1.49973951	0.00000000
0.06000000	-2.71956825	336.67062276	19.62579418	0.65928098	0	-0.66832957	-1.38911061	315.52196034	-23.83337450	0.71370488	0	-0.34705982	0	-0.46321791	0	0	1.52019727	0.00000000
0.07000000	-2.86661990	337.44924537	19.67156589	0.65902651	0	-0.66824335	-1.54388245	315.87756540	-23.83658527	0.71352899	0	-0.34705696	0	-0.43244820	0	0	1.54499826	0.00000000
0.08000000	-3.09224479	338.15262787	19.70271440	0.65895991	0	-0.66817274	-1.72556521	316.09870317	-23.84625250	0.71344820	0	-0.34710100	0	-0.41497260	0	0	1.55999848	-0.00000000
0.09000000	-3.37814746	338.59438497	19.68625827	0.65914456	0	-0.66814793	-1.91447091	316.17234908	-23.86552276	0.71343487	0	-0.34716238	0	-0.40083112	0	0	1.56298740	0.00000000
0.10000000	-3.67208901	338.78499967	19.65873728	0.65940947	0	-0.66813189	-2.12554792	316.09310377	-23.89275926	0.71339585	0	-0.34721543	0	-0.38315492	0	0	1.54949481	0.00000000
0.11000000	-3.91073198	338.88387061	19.65361349	0.65956316	0	-0.66811287	-2.34818183	315.89055856	-23.89779463	0.71338053	0	-0.34724214	0	-0.37127359	0	0	1.53324376	0
0.12000000	-4.06154943	339.02361573	19.68126653	0.65952456	0	-0.66812722	-2.57225564	315.69684078	-23.87226416	0.71350764	0	-0.34725537	0	-0.37183460	0	0	1.53357066	-0.00000000
0.13000000	-4.13247436	339.19048387	19.75075461	0.65936106	0	-0.66812214	-2.75990575	315.59588192	-23.83242605	0.71372296	0	-0.34729334	0	-0.38587431	0	0	1.54318162	0
0.14000000	-4.14361588	339.27507414	19.82851275	0.65915290	0	-0.66807477	-2.88626330	315.58536170	-23.77325983	0.71383029	0	-0.34733492	0	-0.40574319	0	0	1.55830541	-0.00000000
0.15000000	-4.11710859	339.27273182	19.88342390	0.65903063	0	-0.66805622	-2.96223898	315.65821464	-23.70815857	0.71383693	0	-0.34737297	0	-0.41740727	0	0	1.56898599	0.00000000
0.16000000	-4.08004294	339.25754037	19.91304284	0.65898537	0	-0.66806753	-3.00984008	315.78135322	-23.65997545	0.71377947	0	-0.34740571	0	-0.41778164	0	0	1.57066787	0
0.17000000	-4.05687471	339.32911963	19.93458404	0.65887531	0	-0.66807689	-3.07534464	316.00405188	-23.62010274	0.71363535	0	-0.34739420	0	-0.40483487	0	0	1.57100825	-0.00000000
0.18000000	-4.04100051	339.48011180	19.94933665	0.65874126	0	-0.66809153	-3.16100695	316.30326872	-23.59691197	0.71336792	0	-0.34737636	0	-0.37807722	0	0	1.57764225	-0.00000000
0.19000000	-4.02761108	339.66631268	19.95650595	0.65872382	0	-0.66809654	-3.25532762	316.54507654	-23.59127117	0.71308079	0	-0.34738644	0	-0.34695557	0	0	1.58669716	0.00000000
0.20000000	-4.02018176	339.90133620	19.96659083	0.65875002	0	-0.66807487	-3.36434434	316.58032717	-23.59587307	0.71290046	0	-0.34742027	0	-0.33108764	0	0	1.59650342	-0.00000000
0.21000000	-3.99915181	340.15934897	19.96380202	0.65870303	0	-0.66803670	-3.47260454	316.36082195	-23.59722380	0.71289663	0	-0.34742744	0	-0.34246884	0	0	1.60860518	-0.00000000
0.22000000	-3.95744454	340.41951439	19.94015970	0.65857741	0	-0.66798355	-3.54292892	315.89419994	-23.62270182	0.71299679	0	-0.34742040	0	-0.36706498	0	0	1.62542076	0.00000000
0.23000000	-3.92605032	340.61061554	19.89299567	0.65833049	0	-0.66792523	-3.54573146	315.26646679	-23.67591263	0.71325060	0	-0.34739014	0	-0.38395849	0	0	1.62334675	0
0.24000000	-3.92957795	340.65861210	19.82780857	0.65804484	0	-0.66785711	-3.49083365	314.54297881	-23.72505578	0.71367418	0	-0.34733028	0	-0.38507681	0	0	1.59830847	0.00000000
0.25000000	-3.94020655	340.54767105	19.76303830	0.65781865	0	-0.66776954	-3.39405095	313.72055786	-23.76121857	0.71396276	0	-0.34728286	0	-0.37139114	0	0	1.58295910	0
0.26000000	-3.89573277	340.33743619	19.71283474	0.65764307	0	-0.66768358	-3.26235266	312.91030170	-23.80683234	0.71406249	0	-0.34727499	0	-0.34716695	0	0	1.59318684	-0.00000000
0.27000000	-3.77468094	340.18292158	19.68746145	0.65750510	0	-0.66762256	-3.11078320	312.27309779	-23.85490296	0.71399316	0	-0.34727422	0	-0.30936639	0	0	1.62099676	-0.00000000
